<?xml version="1.0" standalone="no"?><!DOCTYPE svg PUBLIC "-//W3C//DTD SVG 1.1//EN" "http://www.w3.org/Graphics/SVG/1.1/DTD/svg11.dtd"><svg t="1581857002072" class="icon" viewBox="0 0 1024 1024" version="1.1" xmlns="http://www.w3.org/2000/svg" p-id="3226" xmlns:xlink="http://www.w3.org/1999/xlink" width="128" height="128"><defs><style type="text/css"></style></defs><path d="M181.333333 290.453333v497.237334h509.546667v64H223.189333A105.856 105.856 0 0 1 117.333333 745.856V290.453333h64zM834.901333 192a64 64 0 0 1 64 64v423.381333a64 64 0 0 1-64 64H293.333333a64 64 0 0 1-64-64V256a64 64 0 0 1 64-64h541.546667z m0 64H293.333333v423.381333h541.546667V256z m-70.208 79.189333v63.914667c-85.952 0.810667-139.776 29.482667-166.272 85.12l-2.346666 5.12-2.773334 6.208c-42.581333 91.797333-126.293333 135.808-244.544 130.837333l7.317334 0.234667 0.042666-64c90.624 2.709333 148.16-28.010667 178.773334-93.269333l2.474666-5.461334 2.56-5.674666c37.824-81.194667 114.453333-121.877333 224.768-123.029334z m-357.226666-13.44a39.381333 39.381333 0 1 1 0 78.762667 39.381333 39.381333 0 0 1 0-78.784z" p-id="3227" fill="#ffffff"></path></svg>