<?xml version="1.0" standalone="no"?><!DOCTYPE svg PUBLIC "-//W3C//DTD SVG 1.1//EN" "http://www.w3.org/Graphics/SVG/1.1/DTD/svg11.dtd"><svg t="1582254501724" class="icon" viewBox="0 0 1024 1024" version="1.1" xmlns="http://www.w3.org/2000/svg" p-id="1143" width="128" height="128" xmlns:xlink="http://www.w3.org/1999/xlink"><defs><style type="text/css"></style></defs><path d="M511.18289 884.372939c-207.708646 0-376.086517-168.379918-376.086517-376.09675 0-207.707622 168.376848-376.085494 376.086517-376.085494 207.709669 0 376.087541 168.377872 376.087541 376.085494C887.270431 715.993021 718.889489 884.372939 511.18289 884.372939L511.18289 884.372939zM676.379303 378.785999c3.394307-3.38612 3.394307-8.891508 0-12.273535l-6.136767-6.138814c-3.387144-3.39533-8.881274-3.39533-12.273535 0L519.811408 498.516918 383.257336 361.975125c-3.373841-3.377934-8.850575-3.377934-12.224416 0l-6.113231 6.115278c-3.373841 3.377934-3.373841 8.847505 0 12.224416l136.547933 136.546909L363.275235 655.067416c-3.391237 3.391237-3.391237 8.890484 0 12.273535l6.142907 6.138814c3.391237 3.39533 8.884344 3.39533 12.273535 0l138.197502-138.202619 138.472771 138.484028c3.377934 3.377934 8.846482 3.377934 12.223393 0l6.115278-6.117324c3.377934-3.375887 3.377934-8.847505 0-12.224416l-138.473795-138.481981L676.379303 378.785999 676.379303 378.785999zM676.379303 378.785999" p-id="1144" fill="#ffffff"></path></svg>