<?xml version="1.0" standalone="no"?><!DOCTYPE svg PUBLIC "-//W3C//DTD SVG 1.1//EN" "http://www.w3.org/Graphics/SVG/1.1/DTD/svg11.dtd"><svg t="1583066985950" class="icon" viewBox="0 0 1025 1024" version="1.1" xmlns="http://www.w3.org/2000/svg" p-id="2744" xmlns:xlink="http://www.w3.org/1999/xlink" width="128.125" height="128"><defs><style type="text/css"></style></defs><path d="M233.310148 854.05865c36.154073 36.154073 78.258495 64.540685 125.143444 84.372456 48.545606 20.532233 100.107802 30.944066 153.254984 30.944066 55.434677 0 109.036904-11.294313 159.318839-33.570032 38.11639-16.88574 72.853177-39.42426 103.669421-67.153358 2.559499 0.660582 5.242729 1.012347 8.008788 1.012347 17.649601 0 31.957435-14.307834 31.957435-31.957435 0-17.649601-14.307834-31.957435-31.957435-31.957435-8.122293 0-15.532876 3.036018-21.170318 8.027194-14.411114-9.867825-41.536894-24.943611-85.500354-37.057004 19.10779-49.693955 36.125441-114.775581 37.542726-190.8335l171.246124 0c-1.611574 58.650668-17.045261 116.417833-44.896045 167.68655-2.696524 4.962544-0.858961 11.170582 4.104606 13.867106 1.551242 0.8426 3.222126 1.242426 4.872558 1.242426 3.627065 0 7.140624-1.93573 8.994548-5.347032 31.091317-57.233382 47.526102-122.130945 47.526102-187.674774 0-5.646645-4.57908-10.225725-10.225725-10.225725L128.219351 565.434498c-5.647668 0-10.225725 4.57908-10.225725 10.225725 0 53.147183 10.410811 104.708355 30.944066 153.254984C168.76844 775.800155 197.155052 817.903555 233.310148 854.05865zM138.587213 585.885947l171.253282 0c1.417285 76.057919 18.434937 141.139545 37.542726 190.8335-69.398927 19.122106-96.829434 45.634342-98.56474 47.369648-3.993146 3.993146-4.012574 10.487503-0.019429 14.480649 2.002197 2.001174 4.622028 3.004318 7.240836 3.004318 2.605515 0 5.210007-0.99394 7.201978-2.985912 0.154408-0.151341 15.957244-15.359039 54.202477-30.394945 10.253334-4.030981 22.78087-8.28386 37.716564-12.296434 9.791132 22.925053 19.649753 41.794583 27.845671 56.032882 23.240005 40.37423 49.506824 72.658888 74.658017 93.084774C280.653209 919.231285 143.530328 768.760766 138.587213 585.885947zM501.482851 947.218072c-25.075523-7.653955-63.843291-41.371238-100.752022-105.491646-7.503637-13.035754-16.455236-30.105557-25.422175-50.730844 32.544392-7.130398 74.219334-12.650244 126.173174-13.29651L501.481828 947.218072zM521.9343 777.699072c51.95384 0.646266 93.629805 6.166112 126.173174 13.29651-8.965916 20.625287-17.917515 37.69509-25.421152 50.730844-36.909754 64.120408-75.6765 97.837691-100.752022 105.491646L521.9343 777.699072zM501.482851 757.244555c-54.76387 0.650356-98.951272 6.4872-134.11754 14.467356-18.739663-48.069088-35.632561-111.488011-37.070298-185.825963l171.187838 0L501.482851 757.244555zM705.972807 808.193206c22.316622 8.773672 36.979289 17.599495 45.35518 23.45679-0.376307 1.961294-0.580821 3.983942-0.580821 6.055674 0 7.185617 2.372368 13.816999 6.375739 19.154828-53.976489 47.00459-120.647193 77.623478-191.262981 88.065988 25.118471-20.429976 51.343365-52.680889 74.549625-92.997855 8.195918-14.238299 18.055562-33.106807 27.845671-56.032882C683.191937 799.909347 695.720495 804.162226 705.972807 808.193206zM656.05184 771.71191c-35.166268-7.980156-79.35367-13.816999-134.11754-14.467356L521.9343 585.885947l171.187838 0C691.685424 660.224922 674.791504 723.642823 656.05184 771.71191z" p-id="2745" fill="#ffffff"></path><path d="M394.104559 521.971076l235.208034 0 20.45145 0 255.659483 0 0-10.225725c0-53.21365-13.906986-103.379011-39.157368-141.256118-16.50432-24.75648-36.617298-42.469481-58.699751-52.155287 20.403389-13.221862 33.942249-36.17657 33.942249-62.248078 0-40.881426-33.25917-74.140596-74.140596-74.140596s-74.140596 33.25917-74.140596 74.140596c0 26.071508 13.53886 49.025193 33.942249 62.248078-22.08143 9.686829-42.195431 27.39983-58.699751 52.155287-10.664408 15.997124-19.295943 34.191756-25.720766 53.876277-6.394146-38.54996-17.035035-73.936081-31.449217-103.693963-17.113773-35.33397-38.330107-60.188617-61.774627-73.019856 21.728643-12.941677 36.322797-36.661269 36.322797-63.735921 0-40.881426-33.25917-74.140596-74.140596-74.140596-40.881426 0-74.140596 33.25917-74.140596 74.140596 0 27.074652 14.595177 50.794243 36.322797 63.735921-23.444519 12.83124-44.660853 37.685887-61.774627 73.019856-14.413159 29.757882-25.055071 65.145026-31.448194 103.694986-6.424823-19.68452-15.056357-37.879153-25.720766-53.876277-16.50432-24.75648-36.617298-42.469481-58.698729-52.155287 20.403389-13.221862 33.942249-36.17657 33.942249-62.248078 0-40.881426-33.25917-74.140596-74.140596-74.140596s-74.140596 33.25917-74.140596 74.140596c0 26.071508 13.53886 49.025193 33.942249 62.248078-22.08143 9.686829-42.195431 27.39983-58.698729 52.155287-25.251405 37.877108-39.157368 88.042469-39.157368 141.256118l0 10.225725L373.653109 521.972099 394.104559 521.972099zM713.67789 256.085868c0-29.604496 24.08465-53.689146 53.689146-53.689146s53.689146 24.08465 53.689146 53.689146-24.08465 53.689146-53.689146 53.689146S713.67789 285.690364 713.67789 256.085868zM685.486589 381.833652c22.185733-33.278599 51.265649-51.607188 81.880447-51.607188s59.694714 18.327567 81.880447 51.607188c21.434142 32.149679 33.907481 74.327726 35.539507 119.685974L649.947083 501.519627C651.579108 456.161379 664.052448 413.984354 685.486589 381.833652zM202.359946 256.085868c0-29.604496 24.08465-53.689146 53.689146-53.689146s53.689146 24.08465 53.689146 53.689146-24.08465 53.689146-53.689146 53.689146S202.359946 285.690364 202.359946 256.085868zM138.628116 501.519627c1.632026-45.358248 14.106387-87.536295 35.539507-119.685974 22.185733-33.278599 51.265649-51.607188 81.880447-51.607188s59.694714 18.327567 81.880447 51.607188c21.433119 32.149679 33.907481 74.327726 35.539507 119.685974L138.628116 501.519627zM458.01943 183.914747c0-29.604496 24.08465-53.689146 53.689146-53.689146 29.604496 0 53.689146 24.08465 53.689146 53.689146s-24.08465 53.689146-53.689146 53.689146C482.104079 237.603893 458.01943 213.519243 458.01943 183.914747zM430.522455 329.586334c22.342186-46.127222 51.17464-71.530991 81.18612-71.530991 30.01148 0 58.843934 25.403768 81.187143 71.530991 22.31969 46.082229 35.109004 106.802584 36.322797 171.933293l-235.017835 0C395.412429 436.388917 408.201743 375.668563 430.522455 329.586334z" p-id="2746" fill="#ffffff"></path><path d="M541.842764 285.327351l-30.18634 24.091808-30.740574-24.141914c-4.442055-3.489017-10.869946-2.715953-14.35794 1.726102-3.487995 4.441032-2.71493 10.869946 1.726102 14.35794l33.197816 26.071508 0 58.207894c0 5.647668 4.57908 10.225725 10.225725 10.225725s10.225725-4.578057 10.225725-10.225725l0-58.256977 32.667101-26.072531c4.413423-3.522762 5.135359-9.956788 1.612597-14.371234C552.692258 282.526525 546.259255 281.804589 541.842764 285.327351z" p-id="2747" fill="#ffffff"></path><path d="M286.480849 351.868188l-30.18634 24.091808-30.740574-24.141914c-4.442055-3.489017-10.869946-2.71493-14.35794 1.726102-3.487995 4.441032-2.71493 10.869946 1.726102 14.35794l33.196793 26.071508 0 54.845675c0 5.647668 4.578057 10.225725 10.225725 10.225725s10.225725-4.578057 10.225725-10.225725l0-54.895781 32.667101-26.071508c4.414445-3.522762 5.136382-9.956788 1.613619-14.371234C297.329321 349.067362 290.895295 348.344403 286.480849 351.868188z" p-id="2748" fill="#ffffff"></path><path d="M797.798794 351.868188l-30.18634 24.091808-30.739552-24.140891c-4.442055-3.489017-10.869946-2.71493-14.35794 1.726102-3.487995 4.441032-2.71493 10.869946 1.726102 14.35794l33.197816 26.071508 0 54.845675c0 5.647668 4.57908 10.225725 10.225725 10.225725s10.225725-4.578057 10.225725-10.225725l0-54.894759 32.667101-26.071508c4.413423-3.522762 5.135359-9.956788 1.613619-14.371234C808.646243 349.068385 802.214262 348.345426 797.798794 351.868188z" p-id="2749" fill="#ffffff"></path><path d="M609.173027 9.401504C463.499396-18.762188 320.322886 17.852043 209.382974 99.127127c-2.608582-1.44694-5.483034-2.519619-8.571203-3.116801-15.731255-3.041131-30.950202 7.245949-33.991332 22.977204-3.041131 15.731255 7.245949 30.950202 22.977204 33.991332 15.731255 3.041131 30.950202-7.245949 33.991332-22.977204 1.02155-5.284655 0.533783-10.508977-1.154484-15.235308C332.779864 34.492365 470.617523 3.443996 605.291342 29.48176c65.148093 12.596048 125.871515 37.567268 180.481999 74.221379 52.75656 35.40964 97.634199 80.180931 133.386401 133.070426 35.751179 52.888472 60.567991 111.220097 73.761221 173.374098 13.656456 64.338216 14.195351 129.992482 1.599303 195.141598s-37.567268 125.871515-74.221379 180.481999c-35.40964 52.757582-80.180931 97.634199-133.070426 133.386401-52.888472 35.751179-111.220097 60.567991-173.374098 73.761221-64.338216 13.656456-129.992482 14.195351-195.141598 1.599303s-125.871515-37.567268-180.481999-74.221379c-52.75656-35.40964-97.634199-80.180931-133.385378-133.070426C69.093187 734.336886 44.276375 676.006283 31.083145 613.852282 17.426689 549.514066 16.887793 483.858777 29.483841 418.710684c12.118507-62.680626 35.740954-121.359926 70.209827-174.407919 1.135055-1.746554 2.290562-3.477769 3.448114-5.208984 0.973489-1.24038 1.680087-2.71902 2.000152-4.373543 1.075746-5.564839-2.563589-10.947661-8.128429-12.02443-4.482958-0.867141-8.843207 1.329344-10.934368 5.123088-1.186184 1.774163-2.372368 3.548327-3.536056 5.339874-34.899376 53.709597-60.23361 114.911583-73.14052 181.669206-53.666649 277.577302 127.849171 546.102793 405.426473 599.769442 277.577302 53.666649 546.102793-127.849171 599.769442-405.426473C1068.266149 331.593643 886.750329 63.068153 609.173027 9.401504z" p-id="2750" fill="#ffffff"></path></svg>