<?xml version="1.0" standalone="no"?><!DOCTYPE svg PUBLIC "-//W3C//DTD SVG 1.1//EN" "http://www.w3.org/Graphics/SVG/1.1/DTD/svg11.dtd"><svg t="1581329843825" class="icon" viewBox="0 0 1360 1024" version="1.1" xmlns="http://www.w3.org/2000/svg" p-id="1868" xmlns:xlink="http://www.w3.org/1999/xlink" width="170" height="128"><defs><style type="text/css"></style></defs><path d="M1104.178971 255.96182H256.267263v78.804474H1104.178971zM926.716182 590.728113h-670.448919v98.505593h670.448919zM1104.178971 433.271887H256.267263v78.804474H1104.178971z m177.462789 413.570768V90.411335c0-49.634601-46.732886-90.411335-96.214765-90.411335H175.171961C125.690082 0 78.804474 40.776734 78.804474 90.411335v756.43132H0v91.633109a85.524236 85.524236 0 0 0 85.06607 85.371514h1190.314094a85.371514 85.371514 0 0 0 85.06607-85.371514v-91.633109zM679.764952 42.762118a42.762118 42.762118 0 1 1-42.609396 42.762118 42.609396 42.609396 0 0 1 42.609396-42.762118z m89.18956 902.433408H591.491723v-98.352871h177.462789z m414.028933-177.157346H177.462789V177.310067h1005.520656z" fill="#ffffff" p-id="1869"></path></svg>