<?xml version="1.0" standalone="no"?><!DOCTYPE svg PUBLIC "-//W3C//DTD SVG 1.1//EN" "http://www.w3.org/Graphics/SVG/1.1/DTD/svg11.dtd"><svg t="1583067063405" class="icon" viewBox="0 0 1038 1024" version="1.1" xmlns="http://www.w3.org/2000/svg" p-id="4442" xmlns:xlink="http://www.w3.org/1999/xlink" width="129.75" height="128"><defs><style type="text/css"></style></defs><path d="M796.76176 587.239999c-123.734255 0-224.030793 97.772785-224.030793 218.380001s100.306593 218.38 224.030793 218.38 224.081067-97.772785 224.081067-218.38-100.346812-218.38-224.081067-218.380001z m90.58361 239.585554h-70.212604v112.995739c0 7.802518-9.12975 14.126981-20.371006 14.126981s-20.371006-6.324463-20.371006-14.126981V826.825553h-69.981344c-8.405805 0-14.66994-4.021916-9.743092-8.043832 3.941478-3.227588 83.454763-109.597219 90.281966-115.067026 4.474382-3.60967 15.082186-3.549341 19.596787 0 5.027395 3.961588 84.932818 110.552424 90.493117 115.237957 4.07219 3.418629-0.432356 7.872901-9.692818 7.872901z" p-id="4443" fill="#ffffff"></path><path d="M777.07448 550.891931c-90.231692 0-168.166375 51.450364-210.497045 127.122719H125.343052c-22.492567 0-40.731957 18.97339-40.731957 42.380943s18.23939 42.370888 40.731957 42.370888h411.442038c-2.242218 13.845447-4.112409 27.861825-4.112409 42.370889a258.056205 258.056205 0 0 0 63.42562 169.503662H84.611095c-44.985134 0-81.443805-37.94678-81.443805-84.751831V84.751831c0-46.805051 36.478781-84.751831 81.443805-84.751831h651.681153c44.995189 0 81.443805 37.94678 81.443805 84.751831v470.42344c-13.242159-2.342766-26.705524-4.283341-40.661573-4.28334z m-651.731428 42.380943h325.865714c22.492567 0 40.731957-18.97339 40.731957-42.380943s-18.23939-42.380943-40.731957-42.380943H125.343052c-22.492567 0-40.731957 18.97339-40.731957 42.380943s18.229336 42.380943 40.731957 42.380943z m203.669842-423.759157H125.343052c-22.492567 0-40.731957 18.97339-40.731957 42.370889s18.229336 42.390998 40.731957 42.390997h203.669842c22.502622 0 40.731957-18.97339 40.731957-42.380943s-18.23939-42.380943-40.731957-42.380943z m203.659787 169.503663H125.343052c-22.492567 0-40.731957 18.97339-40.731957 42.380943s18.23939 42.370888 40.731957 42.370888h407.329629c22.492567 0 40.731957-18.97339 40.731957-42.370888s-18.229336-42.380943-40.731957-42.380943z" p-id="4444" fill="#ffffff"></path></svg>