<?xml version="1.0" standalone="no"?><!DOCTYPE svg PUBLIC "-//W3C//DTD SVG 1.1//EN" "http://www.w3.org/Graphics/SVG/1.1/DTD/svg11.dtd"><svg t="1581927021540" class="icon" viewBox="0 0 1024 1024" version="1.1" xmlns="http://www.w3.org/2000/svg" p-id="4664" xmlns:xlink="http://www.w3.org/1999/xlink" width="128" height="128"><defs><style type="text/css"></style></defs><path d="M297.803294 969.065412a30.117647 30.117647 0 1 1 0-60.235294h428.393412a30.117647 30.117647 0 0 1 0 60.235294H297.803294zM150.588235 60.235294a60.235294 60.235294 0 0 0-60.235294 60.235294v556.272941a60.235294 60.235294 0 0 0 60.235294 60.235295h722.82353a60.235294 60.235294 0 0 0 60.235294-60.235295V120.470588a60.235294 60.235294 0 0 0-60.235294-60.235294H150.588235z m0-60.235294h722.82353a120.470588 120.470588 0 0 1 120.470588 120.470588v556.272941a120.470588 120.470588 0 0 1-120.470588 120.470589H150.588235a120.470588 120.470588 0 0 1-120.470588-120.470589V120.470588a120.470588 120.470588 0 0 1 120.470588-120.470588z" fill="#ffffff" p-id="4665"></path><path d="M403.275294 382.313412L237.748706 532.48a30.117647 30.117647 0 0 1-40.478118-44.574118l178.657883-162.153411a42.164706 42.164706 0 0 1 59.030588 2.228705l129.385412 137.09553 219.196235-257.867294a30.117647 30.117647 0 0 1 45.899294 39.03247L597.172706 519.469176c-1.505882 1.807059-1.505882 1.807059-3.132235 3.373177a42.164706 42.164706 0 0 1-59.632942-1.686588L403.275294 382.313412z" fill="#ffffff" p-id="4666"></path></svg>