<?xml version="1.0" standalone="no"?><!DOCTYPE svg PUBLIC "-//W3C//DTD SVG 1.1//EN" "http://www.w3.org/Graphics/SVG/1.1/DTD/svg11.dtd"><svg t="1581927008799" class="icon" viewBox="0 0 1024 1024" version="1.1" xmlns="http://www.w3.org/2000/svg" p-id="4502" xmlns:xlink="http://www.w3.org/1999/xlink" width="128" height="128"><defs><style type="text/css"></style></defs><path d="M715.1 919.4H128.5c-35.9 0-65.2-29.2-65.2-65.2V169.8c0-35.9 29.2-65.2 65.2-65.2h586.6c35.9 0 65.2 29.2 65.2 65.2V235c0 18-14.6 32.6-32.6 32.6S715.1 253 715.1 235v-65.2H128.5v684.4h586.6V707.6c0-18 14.6-32.6 32.6-32.6s32.6 14.6 32.6 32.6v146.6c0 36-29.2 65.2-65.2 65.2z" fill="#ffffff" p-id="4503"></path><path d="M398.6 854.2c-8.5 0-16.8-3.3-23-9.5-8.7-8.6-11.8-21.4-8-33.1 17.3-53.7 49.6-147.2 71.6-169.3l360-361.6c32.6-32.7 90.1-28.3 128.3 9.7 17.4 17.3 28.6 39.4 31.4 62.2 3.2 25.3-4.6 49.4-21.1 66.1l-360 361.6c-22 22.1-115.3 54.8-169 72.3-3.4 1.1-6.8 1.6-10.2 1.6z m455.7-530.3c-4 0-7.2 1-9 2.8l-360 361.6c-6.2 7.7-20 41.4-34.2 80.6 39.1-14.4 73-28.6 81-35.1l359.4-361c3.3-3.3 2.9-9.5 2.6-12-1-8.2-5.6-17-12.7-24-9-9.2-19.5-12.9-27.1-12.9z" fill="#ffffff" p-id="4504"></path><path d="M847.1 464.9c-6.2 0-12.5-2.4-17.2-7.1l-57.7-57.5c-9.6-9.5-9.6-25-0.1-34.6 9.5-9.6 25-9.6 34.6-0.1l57.7 57.5c9.6 9.5 9.6 25 0.1 34.6-4.8 4.8-11.1 7.2-17.4 7.2zM559.7 753.5c-13.5 0-24.4-10.9-24.4-24.4 0 0-1-13.9-15.9-28.8-15-14.9-28.9-15.8-29.5-15.8-13.2-0.7-23.9-11.8-23.5-25 0.3-13.2 10.8-23.8 24-23.9 2.3-0.3 33.9 0.7 63.5 30.1 29.4 29.3 30.3 59.9 30.3 63.3 0 13.5-11 24.5-24.5 24.5z" fill="#ffffff" p-id="4505"></path><path d="M519.6 340.9H226.3c-13.5 0-24.4-10.9-24.4-24.4s10.9-24.4 24.4-24.4h293.3c13.5 0 24.4 10.9 24.4 24.4s-10.9 24.4-24.4 24.4zM519.6 503.9H226.3c-13.5 0-24.4-10.9-24.4-24.4s10.9-24.4 24.4-24.4h293.3c13.5 0 24.4 10.9 24.4 24.4s-10.9 24.4-24.4 24.4z" fill="#ffffff" p-id="4506"></path><path d="M355.7 666.8H226.3c-13.5 0-24.4-10.9-24.4-24.4s10.9-24.4 24.4-24.4h129.4c13.5 0 24.4 10.9 24.4 24.4s-10.9 24.4-24.4 24.4z" fill="#ffffff" p-id="4507"></path></svg>