<?xml version="1.0" standalone="no"?><!DOCTYPE svg PUBLIC "-//W3C//DTD SVG 1.1//EN" "http://www.w3.org/Graphics/SVG/1.1/DTD/svg11.dtd"><svg t="1581927113140" class="icon" viewBox="0 0 1024 1024" version="1.1" xmlns="http://www.w3.org/2000/svg" p-id="4823" xmlns:xlink="http://www.w3.org/1999/xlink" width="128" height="128"><defs><style type="text/css"></style></defs><path d="M115.456 874.752h784c16.896 0.576 30.464 5.824 40.704 15.744 10.176 9.92 15.296 23.296 15.296 40.256v22.72h-896v-22.72c0-14.592 5.12-27.456 15.296-38.528 10.24-11.072 23.808-16.896 40.704-17.472z m767.424-520.64l-100.608-257.28c-5.824-11.648-13.888-21.12-24.064-28.416-10.24-7.296-20.864-10.944-31.936-10.944H288.704c-11.072 0.576-21.44 4.096-31.04 10.496-9.6 6.4-15.872 14.016-18.816 22.72L132.096 354.112c-2.944 8.768-4.096 18.112-3.52 28.032 0.576 9.92 3.776 19.264 9.6 28.032l285.248 398.144c5.824 8.192 12.672 13.888 20.544 17.088s15.872 4.8 24.064 4.8h11.392V566.72h61.248v258.112a53.056 53.056 0 0 0 24.064-7.424c7.296-4.352 12.416-9.472 15.296-15.296l286.144-397.248c16.384-16.896 21.952-33.792 16.704-50.752zM512.704 444.224c-36.736-1.152-67.072-13.696-91.008-37.632-23.936-23.936-36.48-54.528-37.632-91.904 1.152-36.736 13.696-67.072 37.632-91.008 23.936-23.936 54.272-36.48 91.008-37.632 37.312 1.152 67.968 13.696 91.904 37.632 23.936 23.936 36.48 54.272 37.632 91.008-1.152 35.008-13.696 65.024-37.632 90.112-23.936 25.152-54.528 38.272-91.904 39.424z" p-id="4824" fill="#ffffff"></path></svg>