<?xml version="1.0" standalone="no"?><!DOCTYPE svg PUBLIC "-//W3C//DTD SVG 1.1//EN" "http://www.w3.org/Graphics/SVG/1.1/DTD/svg11.dtd"><svg t="1581926962307" class="icon" viewBox="0 0 1024 1024" version="1.1" xmlns="http://www.w3.org/2000/svg" p-id="3844" xmlns:xlink="http://www.w3.org/1999/xlink" width="128" height="128"><defs><style type="text/css"></style></defs><path d="M729.966664 1015.379849H81.14024599A72.00288601 72.00288601 0 0 1 9.568367 943.807971V80.192029A72.00288601 72.00288601 0 0 1 81.14024599 8.620151H729.966664a72.015201 72.015201 0 0 1 71.584193 71.571878v139.73264101h-64.047718V80.192029a7.90591001 7.90591001 0 0 0-7.474902-7.474902H81.14024599a7.90591001 7.90591001 0 0 0-7.47490199 7.474902v863.615942a7.90591001 7.90591001 0 0 0 8.336917 8.324602H729.966664a7.90591001 7.90591001 0 0 0 8.336917-8.324602V812.399933h64.09697699v129.696322a72.421579 72.421579 0 0 1-71.57187899 73.283594z m0 0" p-id="3845" fill="#ffffff"></path><path d="M729.966664 1024H81.14024599A80.918585 80.918585 0 0 1 0.948217 943.857229V80.192029A80.930899 80.930899 0 0 1 81.090988 0H729.966664a80.930899 80.930899 0 0 1 80.204344 80.142771v148.402049h-81.28802V81.33727801H82.28549401v862.17514499h647.45950899V803.77978201h81.337278v138.31647299a81.054044 81.054044 0 0 1-80.04425499 81.903745zM729.966664 17.240301H81.14024599A63.604397 63.604397 0 0 0 18.18851799 80.241287v863.566684a63.59208199 63.59208199 0 0 0 63.01330002 62.951728h649.67611899a63.801429 63.801429 0 0 0 62.951728-64.564928v-121.174688h-46.844361v122.590856a16.52606 16.52606 0 0 1-17.154099 17.141785H82.22392201a16.52606 16.52606 0 0 1-17.15410002-17.141785V79.736393a16.489117 16.489117 0 0 1 15.639416-15.639416h649.77463501a16.489117 16.489117 0 0 1 15.639416 15.639416v131.568126h46.856676V80.192029A63.604397 63.604397 0 0 0 729.966664 17.240301z" p-id="3846" fill="#ffffff"></path><path d="M385.603964 619.19773001H247.583039a31.611324 31.611324 0 0 1-31.623638-31.62363901 32.682685 32.682685 0 0 1 31.623638-31.623638h138.020925A31.611324 31.611324 0 0 1 417.178344 587.635664a30.552276 30.552276 0 0 1-31.57438 31.56206601z m628.16268601-249.55335901a154.90410601 154.90410601 0 0 0-174.767396-131.395724 31.62363799 31.62363799 0 0 0-18.37323501 11.748034L739.818265 350.470693 504.832961 639.553599a33.470813 33.470813 0 0 0-6.625202 13.25040301l-51.068235 210.45481899c-3.79286599 11.61257401-3.558891 20.195781 5.73855801 28.101691 3.09094 2.635303 10.504269 6.35428201 17.24030099 6.15724999 3.423431 0 8.620151-1.23145001 17.240301-4.334704l198.054116-85.462636a25.860452 25.860452 0 0 0 13.250403-10.048632L1008.27438201 391.69964199a24.62900199 24.62900199 0 0 0 5.55384-22.00601299zM547.99528601 698.306083A69.44146999 69.44146999 0 0 1 596.970056 714.11790199a87.19898 87.19898 0 0 1 29.91192199 51.486928v2.35206901l-106.877552 45.94540299z m131.18637699 23.286721a135.902831 135.902831 0 0 0-45.56365301-57.471776 147.626236 147.626236 0 0 0-52.078024-23.988647l195.07400701-239.024461a95.289607 95.289607 0 0 1 59.82384499 18.594896 87.359069 87.359069 0 0 1 34.82540901 50.637228z m233.74154-305.74442599a139.486351 139.486351 0 0 0-41.241263-46.15474901 154.633187 154.633187 0 0 0-50.20622-24.78909l34.18505399-42.731318a94.821656 94.821656 0 0 1 91.44748301 66.65839301zM550.335041 449.602424H247.583039a31.62363799 31.62363799 0 0 1-31.623638-31.62363799 32.695 32.695 0 0 1 31.623638-31.62363801h302.752002a31.62363799 31.62363799 0 0 1 31.623638 31.62363801 30.552276 30.552276 0 0 1-31.623638 31.62363799z m0-164.731077H247.583039a31.62363799 31.62363799 0 0 1-31.623638-31.623638 32.695 32.695 0 0 1 31.623638-30.983284h302.752002a31.62363799 31.62363799 0 0 1 31.623638 31.623638 30.552276 30.552276 0 0 1-31.623638 31.58669499z m0 0" p-id="3847" fill="#ffffff"></path><path d="M469.638117 906.12559801c-9.272819 0-18.373235-4.864228-22.32619-8.213772-14.11241801-12.00663799-11.994324-26.045169-8.460062-37.01738901L489.833899 650.759795a42.374197 42.374197 0 0 1 8.336917-16.673834L733.16843399 345.03999799l80.65998101-100.30160899a40.26841799 40.26841799 0 0 1 23.274406-14.851288l0.664983-0.123145a163.524256 163.524256 0 0 1 184.483537 138.353417 33.249152 33.249152 0 0 1-7.388701 29.06222099L705.60858201 802.683792a34.71457801 34.71457801 0 0 1-17.14178501 13.041056l-197.96791499 85.47495001-0.233976 0.08620099c-9.297448 3.374173-15.29461001 4.839599-19.99874901 4.864228zM840.550881 246.782596a23.01580201 23.01580201 0 0 0-13.065685 8.484691l-0.14777401 0.184718-80.758496 100.424754-235.059192 289.11985a25.03538 25.03538 0 0 0-4.92579998 9.8516l-51.154436 210.762682-0.098516 0.320177c-3.521947 10.775188-1.797917 14.66656999 3.12788299 18.8535 1.810232 1.539313 7.14241001 4.22387401 11.415542 4.113044h0.24629c1.674772 0 5.46763801-0.652669 14.001588-3.694351l198.164947-85.49957901 0.34480599-0.11082999a17.36344599 17.36344599 0 0 0 8.84181101-6.699089l0.283234-0.394064 309.795897-406.28001 0.221661-0.24629a16.008851 16.008851 0 0 0 3.595834-14.28482101l-0.147774-0.76349899c-11.403228-79.42853001-85.22866-135.040816-164.694134-124.130168zM507.56678 828.630445l33.532385-138.50119099 6.317339-0.41869301a77.729129 77.729129 0 0 1 55.008875 17.76982501 96.05310599 96.05310599 0 0 1 32.892032 56.64670299l0.13546 0.75118501v8.79255399z m47.238425-121.827357l-22.363134 92.358756 84.970056-36.537124a78.73891799 78.73891799 0 0 0-26.008226-41.86930199 60.513457 60.513457 0 0 0-36.598696-13.95233001zM677.014311 738.648387l-5.750872-13.730668a127.28268 127.28268 0 0 0-42.620487-53.826683 138.27953001 138.27953001 0 0 0-49.07328599-22.52322201L566.183804 645.37835799l206.21862999-252.76744299 3.91601101-0.13546a104.316136 104.316136 0 0 1 65.14371 20.208096 95.95458999 95.95458999 0 0 1 38.174952 55.563028l0.99747501 4.01452701z m-80.48757699-103.170887a155.39668599 155.39668599 0 0 1 42.22642299 21.636577 144.522981 144.522981 0 0 1 42.152536 48.026554l180.912331-236.647762a78.714289 78.714289 0 0 0-30.30598599-41.721529l-0.19703202-0.13546a87.05120599 87.05120599 0 0 0-50.57565499-16.957067z m-209.81446501-7.598047h-139.15385901a40.243789 40.243789 0 0 1-40.24378899-40.243789v-0.270919a41.389037 41.389037 0 0 1 39.960555-39.96055499h138.291844A40.23147399 40.23147399 0 0 1 425.79849399 587.48789001a39.172427 39.172427 0 0 1-39.17242699 40.41619198zM224.59186599 587.771123a22.868028 22.868028 0 0 0 6.73603202 16.131997 23.163576 23.163576 0 0 0 16.25514099 6.674459h138.32878701A21.93212601 21.93212601 0 0 0 408.558193 587.94352601v-0.30786201a22.991173 22.991173 0 0 0-23.00348701-23.003488h-137.92240899a24.124107 24.124107 0 0 0-23.04043101 23.138947zM551.406403 458.247204H247.583039a40.293047 40.293047 0 0 1-40.24378901-40.26841799v-0.28323301a41.41366599 41.41366599 0 0 1 39.96055501-39.96055499h303.035236a40.243789 40.243789 0 0 1 40.24378899 40.09601399A39.172427 39.172427 0 0 1 551.406403 458.247204z m-326.826852-40.120644a23.028117 23.028117 0 0 0 23.003488 22.85571401h303.059865a21.93212601 21.93212601 0 0 0 22.695625-22.69562501v-0.30786299a23.003488 23.003488 0 0 0-23.003488-23.00348701H247.730813a24.13642201 24.13642201 0 0 0-23.151262 23.151261z m687.346177 13.742983l-6.55131399-11.84655A131.64201399 131.64201399 0 0 0 866.657623 376.725209l-0.160088-0.11083099a145.458884 145.458884 0 0 0-47.410828-23.39755101l-12.486904-3.54657699 44.849412-56.06792201H856.510475A103.441807 103.441807 0 0 1 955.322029 366.282512l1.23145 4.137672z m-35.17021399-69.133607a149.165548 149.165548 0 0 1 36.75878499 37.645429l24.000962-32.990548a86.20150601 86.20150601 0 0 0-77.753758-56.52355899l-23.77930099 29.72720499a162.551411 162.551411 0 0 1 40.773312 22.141473zM551.406403 294.094908h-1.391539l-8.312288-0.295548v-0.332491H247.583039a40.293047 40.293047 0 0 1-40.24378901-40.243789v-0.44332199a41.56144 41.56144 0 0 1 39.96055501-39.14779801h303.035236a40.243789 40.243789 0 0 1 40.24378899 40.0837A39.172427 39.172427 0 0 1 551.406403 294.094908z m-326.826852-40.637852a23.028117 23.028117 0 0 0 23.003488 22.78182599h309.155542a21.919811 21.919811 0 0 0 16.612262-22.05527099v-0.307862a23.003488 23.003488 0 0 0-23.003487-23.003488H247.730813a24.222623 24.222623 0 0 0-23.151262 22.584795z" p-id="3848" fill="#ffffff"></path></svg>