<?xml version="1.0" standalone="no"?><!DOCTYPE svg PUBLIC "-//W3C//DTD SVG 1.1//EN" "http://www.w3.org/Graphics/SVG/1.1/DTD/svg11.dtd"><svg t="1581926999408" class="icon" viewBox="0 0 1024 1024" version="1.1" xmlns="http://www.w3.org/2000/svg" p-id="4339" xmlns:xlink="http://www.w3.org/1999/xlink" width="128" height="128"><defs><style type="text/css"></style></defs><path d="M461.435 91.909l-24.216 41.943 317.34 183.216 24.215-41.943-317.34-183.216z m-3.593-55.711L828.818 250.38c7.406 4.276 9.943 13.745 5.667 21.151l-55.183 95.58c-4.275 7.406-13.745 9.943-21.15 5.667L387.174 158.596c-7.406-4.276-9.943-13.745-5.668-21.151l55.184-95.58c4.275-7.406 13.745-9.943 21.15-5.667zM240.934 526.134c40.726-70.539 130.923-94.707 201.461-53.981 70.538 40.725 94.707 130.922 53.981 201.46-30.267 52.426-88.757 80.166-146.897 72.528l-60.27 104.389 305.846-130.57c0.305-2.053 0.189-3.253 0.089-4.342-10.822-117.434 10.21-223.538 65.941-328.868 0.156-0.292-42.156-25.238-126.937-74.838L406.563 238.25c-62.051 99.582-142.615 170.813-248.248 220.307a516.206 516.206 0 0 1-7.269 3.326c-0.193 0.086 12.843 109.521 39.109 328.304l59.524-103.1c-34.017-46.391-38.431-109.534-8.745-160.953zM641.4 711.355c0.087 0.95 0.19 2.02 0.31 3.207 2.069 20.527-9.44 40.017-28.415 48.118L256.282 915.094c-14.171 6.05-30.564-0.534-36.614-14.705a27.9 27.9 0 0 1 1.497-24.905L326.34 693.318l17.096 4.418c43.56 11.258 89.875-7.79 112.714-47.348 27.898-48.321 11.342-110.11-36.98-138.008-48.32-27.898-110.109-11.342-138.007 36.98-22.391 38.782-16.46 87.317 13.654 119.515l11.757 12.57-105.458 182.66c-7.437 12.882-23.91 17.295-36.79 9.858a26.933 26.933 0 0 1-13.273-20.098l-46.545-385.668c-2.474-20.496 8.666-40.219 27.496-48.682 2.595-1.167 4.8-2.175 6.603-3.02C236.512 370.62 310.41 305.132 367.794 212.63c12.83-20.682 39.763-27.444 60.841-15.274l128.812 74.37 126.785 73.817c21.928 12.766 29.827 40.587 17.89 62.968-51.483 97.32-70.718 194.38-60.723 302.843zM387.51 914.637V900.11c0-8.55 6.933-15.483 15.484-15.483h426.362c8.552 0 15.484 6.932 15.484 15.483v14.527c0 8.551-6.932 15.484-15.484 15.484H402.994c-8.551 0-15.484-6.933-15.484-15.484z" p-id="4340" fill="#ffffff"></path></svg>