<?xml version="1.0" standalone="no"?><!DOCTYPE svg PUBLIC "-//W3C//DTD SVG 1.1//EN" "http://www.w3.org/Graphics/SVG/1.1/DTD/svg11.dtd"><svg t="1581856726263" class="icon" viewBox="0 0 1024 1024" version="1.1" xmlns="http://www.w3.org/2000/svg" p-id="1128" xmlns:xlink="http://www.w3.org/1999/xlink" width="128" height="128"><defs><style type="text/css"></style></defs><path d="M678.305582 313.839259h-108.13165a17.541357 17.541357 0 0 1-16.700333-12.014628L519.472203 197.777955a8.290093 8.290093 0 0 0-15.739163 0l-33.040226 103.806384a17.661503 17.661503 0 0 1-16.700333 12.014628h-108.13165a8.290093 8.290093 0 0 0-4.805851 15.138431l87.46649 64.278259a17.781649 17.781649 0 0 1 6.848338 20.064428L401.368411 516.646177a8.290093 8.290093 0 0 0 12.735506 9.371409l87.586637-64.158112a17.301064 17.301064 0 0 1 20.665159 0l87.586637 64.158112a8.290093 8.290093 0 0 0 12.735506-9.371409l-33.400666-103.806385a17.781649 17.781649 0 0 1 6.367753-19.824135l87.46649-64.278259a8.410239 8.410239 0 0 0-4.805851-14.898139z m198.121213 610.222947L752.916421 626.580021h2.162633a19.223404 19.223404 0 0 0 19.223405-19.223404v-62.95665a14.898138 14.898138 0 0 1 8.770678-13.576529l57.429921-25.471011a19.343551 19.343551 0 0 0 9.731848-25.471011l-21.746476-49.019682a14.177261 14.177261 0 0 1 3.003657-15.619016l37.846077-37.966224a19.343551 19.343551 0 0 0 0-27.153059l-44.454122-44.574269a14.898138 14.898138 0 0 1-3.364096-15.739162L843.867154 231.058474a19.223404 19.223404 0 0 0-10.933312-24.87028L783.794014 186.844643a14.177261 14.177261 0 0 1-8.890824-13.095944V120.163459a19.223404 19.223404 0 0 0-19.223405-19.223404h-63.317088a14.898138 14.898138 0 0 1-13.57653-8.890825l-25.350864-57.550067A19.223404 19.223404 0 0 0 627.603853 24.767314l-48.058511 21.746477a14.177261 14.177261 0 0 1-15.619016-2.883511L525.839955 5.664056a19.103258 19.103258 0 0 0-27.153058 0l-44.454123 44.574269a14.5377 14.5377 0 0 1-15.619016 3.24395l-58.631384-22.587501a19.223404 19.223404 0 0 0-24.87028 10.933312l-19.223404 50.100998a14.057115 14.057115 0 0 1-13.095945 9.010971h-53.465093A19.103258 19.103258 0 0 0 250.224393 120.163459v62.95665a14.657846 14.657846 0 0 1-8.770678 13.456383l-57.429921 25.591157a19.103258 19.103258 0 0 0-9.731848 25.350865l21.62633 49.139828A14.057115 14.057115 0 0 1 193.034765 312.397504L155.188687 350.123435a19.343551 19.343551 0 0 0 0 27.153059l44.454123 44.574269a14.777992 14.777992 0 0 1 3.24395 15.739163l-22.5875 58.75153a19.343551 19.343551 0 0 0 11.053457 24.870279L241.213423 540.675432a14.177261 14.177261 0 0 1 9.01097 13.095945v53.705386a19.223404 19.223404 0 0 0 19.103259 19.223404L147.619472 920.337671a7.689362 7.689362 0 0 0 10.212434 10.092287l144.175533-63.797673a9.37141 9.37141 0 0 1 12.014628 4.925997l58.871676 143.574803a7.929654 7.929654 0 0 0 14.657846 0l120.146278-288.351068a18.502527 18.502527 0 0 0 7.689362 0 21.386038 21.386038 0 0 0 1.081317 3.964827l120.146278 288.351068a7.929654 7.929654 0 0 0 14.657846 0l58.75153-144.175534a9.611702 9.611702 0 0 1 12.014628-5.046144l144.175533 63.797674a7.689362 7.689362 0 0 0 10.212434-9.611702zM512.263426 626.219582a262.519618 262.519618 0 1 1 261.678594-262.519617A262.159179 262.159179 0 0 1 512.263426 626.219582z" fill="#ffffff" p-id="1129"></path></svg>