<?xml version="1.0" standalone="no"?><!DOCTYPE svg PUBLIC "-//W3C//DTD SVG 1.1//EN" "http://www.w3.org/Graphics/SVG/1.1/DTD/svg11.dtd"><svg t="1581856654147" class="icon" viewBox="0 0 1024 1024" version="1.1" xmlns="http://www.w3.org/2000/svg" p-id="903" width="128" height="128" xmlns:xlink="http://www.w3.org/1999/xlink"><defs><style type="text/css"></style></defs><path d="M830.132714 159.958688c-3.172734 0-6.345469 0-9.518203 0.660987 10.046992-40.58456 19.3008-78.128582 27.100439-106.683192A43.096308 43.096308 0 0 0 806.205009 0H216.737413a42.831913 42.831913 0 0 0-33.974697 16.789052 43.4929 43.4929 0 0 0-7.535244 37.147431c7.403047 28.554609 17.053447 66.098632 26.439453 106.683192-3.172734 0-6.345469-0.660986-9.518203-0.660987-55.655048 0-158.636716 0-158.636716 128.099148 0 101.791893 63.586884 255.933901 159.297702 255.933902a130.87529 130.87529 0 0 0 85.531629-32.784922 295.59308 295.59308 0 0 0 130.743094 141.05448v252.232378H352.10741c-17.582236 0-28.422412 5.81668-28.422411 23.531113v27.761425h-35.29667a34.239091 34.239091 0 0 0 0 68.213788H734.157501a34.239091 34.239091 0 0 0 0-68.213788h-34.900078v-27.761425c0-17.714433-10.840176-23.531113-28.422411-23.531113H613.857991V652.261296a295.857475 295.857475 0 0 0 130.875291-141.05448 134.973406 134.973406 0 0 0 87.117996 32.784922c95.843016 0 158.636716-154.142009 158.636716-255.933902-0.132197-128.099148-104.700232-128.099148-160.35528-128.099148zM192.809708 480.008262c-41.906532 0-95.578621-107.608572-95.578621-191.950426 0-52.878905 16.92125-64.115673 95.578621-64.115672a74.955848 74.955848 0 0 1 26.439453 5.552285c17.185644 72.840692 32.784921 145.416989 37.411825 186.530338q1.586367 13.219726 3.965918 26.439453a84.870643 84.870643 0 0 1-67.817196 37.544022z m637.323006 0a85.135037 85.135037 0 0 1-67.684999-37.808417c1.586367-8.592822 3.040537-17.317841 3.965918-26.439453 4.759101-41.377743 20.226181-113.689646 37.544023-186.530338a73.633876 73.633876 0 0 1 26.439452-5.552285c78.657372 0 95.578621 11.501162 95.578621 64.115673-0.264395 84.606248-53.804286 192.214821-95.843015 192.21482z" fill="#ffffff" p-id="904"></path></svg>