<?xml version="1.0" standalone="no"?><!DOCTYPE svg PUBLIC "-//W3C//DTD SVG 1.1//EN" "http://www.w3.org/Graphics/SVG/1.1/DTD/svg11.dtd"><svg t="1581329716946" class="icon" viewBox="0 0 1055 1024" version="1.1" xmlns="http://www.w3.org/2000/svg" p-id="1528" xmlns:xlink="http://www.w3.org/1999/xlink" width="131.875" height="128"><defs><style type="text/css"></style></defs><path d="M1005.597012 197.719421h-3.450823L534.11224 0 65.950482 200.659011v112.72691h939.64653zM907.440248 412.565152c13.547678 0 24.411383-19.171243 24.411383-32.974538s-10.863704-33.102346-24.411383-33.102346H763.016883c-13.547678 0-24.539191 19.171243-24.539192 33.102346s10.991513 32.974538 24.539192 32.974538h11.758362v347.127309h-11.758362a24.794808 24.794808 0 0 0 0 49.589616H907.440248a24.794808 24.794808 0 0 0 0-49.589616h-17.254119V412.565152z m-316.45332 0c12.780829 0 24.411383-19.171243 24.411383-32.974538s-10.991513-33.102346-24.411383-33.102346H446.435754c-12.780829 0-24.411383 19.171243-24.411383 33.102346s10.991513 32.974538 24.411383 32.974538h15.081378v347.127309h-15.081378a24.794808 24.794808 0 0 0 0 49.589616h144.551174a24.794808 24.794808 0 0 0 0-49.589616h-14.058912V412.565152z m-298.943585 0c13.547678 0 24.411383-19.171243 24.411383-32.974538s-10.863704-33.102346-24.411383-33.102346H147.49217c-12.780829 0-24.411383 19.171243-24.411383 33.102346s10.991513 32.974538 24.411383 32.974538h17.381927v347.127309h-17.381927a24.794808 24.794808 0 0 0 0 49.589616h144.551173a24.794808 24.794808 0 0 0 0-49.589616h-11.758362V412.565152zM1031.15867 958.562157H23.773747C10.609494 958.562157 0.001406 964.185721 0.001406 977.7334v21.983025a24.027958 24.027958 0 0 0 23.772341 24.283575h1007.384923a24.155766 24.155766 0 0 0 23.90015-24.283575V977.7334c0-13.547678-10.735896-19.171243-23.90015-19.171243zM94.196114 924.948577h884.177733c12.780829 0 27.223165-19.299051 27.223165-34.252621v-16.359461a33.61358 33.61358 0 0 0-27.223165-32.07988H94.196114a34.508238 34.508238 0 0 0-28.245632 32.07988v16.359461c0 14.95357 15.081378 34.252621 28.245632 34.252621z" fill="#ffffff" p-id="1529"></path></svg>