<?xml version="1.0" standalone="no"?><!DOCTYPE svg PUBLIC "-//W3C//DTD SVG 1.1//EN" "http://www.w3.org/Graphics/SVG/1.1/DTD/svg11.dtd"><svg t="1581329798165" class="icon" viewBox="0 0 1056 1024" version="1.1" xmlns="http://www.w3.org/2000/svg" p-id="1698" xmlns:xlink="http://www.w3.org/1999/xlink" width="132" height="128"><defs><style type="text/css"></style></defs><path d="M984.937442 682.496256a39.620569 39.620569 0 0 0-25.561658-15.336995 493.212182 493.212182 0 0 0-416.782825 165.256116 6.646031 6.646031 0 0 1-9.841239 0c-124.485272-158.354468-324.760859-179.698452-420.489266-169.601598a33.61358 33.61358 0 0 0-25.561657 17.254119 181.615577 181.615577 0 0 1-32.974538 42.815776 9.71343 9.71343 0 0 0 3.195207 16.742886l478.897653 185.194209 479.408887-185.194209a10.608088 10.608088 0 0 0 4.47329-17.637544A488.09985 488.09985 0 0 1 984.937442 682.496256zM41.840088 185.961058l187.878183 62.626061a16.998502 16.998502 0 0 1 10.480279 21.727409l-68.888667 187.494758a39.748377 39.748377 0 0 0 18.66001 48.694958L495.303892 669.715427a66.076885 66.076885 0 0 0 61.22017 0l302.522217-162.316525a41.79331 41.79331 0 0 0 20.321517-49.206191L818.786668 268.397404a18.915627 18.915627 0 0 1 12.780829-21.983026l91.255117-28.884673V345.082376c0 5.24014-7.668497 9.841238-11.374938 13.675487a41.921118 41.921118 0 0 0-14.058911 24.283575 35.786321 35.786321 0 0 0 71.572641 0 34.636046 34.636046 0 0 0-8.435347-23.90015 19.299051 19.299051 0 0 1-3.578632-14.058912V204.49326l55.085372-18.915626a11.758362 11.758362 0 0 0-0.639042-22.366451L558.696803 5.495756a99.562656 99.562656 0 0 0-65.054419 0L41.71228 163.594608a11.758362 11.758362 0 0 0 0.127808 22.36645z m1013.51972 622.681977c-1.917124-11.119321-10.096855-17.89316-18.148777-15.209186L534.28542 979.394908a26.328507 26.328507 0 0 1-16.615078 0l-498.452321-185.961059C11.421715 790.749875 3.241985 797.523714 0.813628 808.515227a22.110834 22.110834 0 0 0 11.119321 25.561658l510.4663 189.411882a12.780829 12.780829 0 0 0 7.157264 0l514.811783-189.923115a21.855217 21.855217 0 0 0 10.991512-24.922617z" fill="#ffffff" p-id="1699"></path></svg>