<?xml version="1.0" standalone="no"?><!DOCTYPE svg PUBLIC "-//W3C//DTD SVG 1.1//EN" "http://www.w3.org/Graphics/SVG/1.1/DTD/svg11.dtd"><svg t="1583066914689" class="icon" viewBox="0 0 1024 1024" version="1.1" xmlns="http://www.w3.org/2000/svg" p-id="1832" xmlns:xlink="http://www.w3.org/1999/xlink" width="128" height="128"><defs><style type="text/css"></style></defs><path d="M1000.315993 398.469565H23.063819c-8.904348 0-17.808696-6.678261-22.260869-15.582608-2.226087-8.904348 0-20.034783 8.904347-24.486957L499.446428 4.452174c6.678261-6.678261 17.808696-6.678261 26.713043 0l487.513044 353.947826c8.904348 6.678261 11.130435 15.582609 8.904348 24.486957s-13.356522 15.582609-22.26087 15.582608z m-908.243478-44.521739h839.234782L512.80295 51.2 92.072515 353.947826z" p-id="1833" fill="#ffffff"></path><path d="M134.368167 1021.773913c-13.356522 0-22.26087-8.904348-22.26087-22.26087V385.113043c0-13.356522 8.904348-22.26087 22.26087-22.260869s22.26087 8.904348 22.26087 22.260869v614.4c0 11.130435-11.130435 22.26087-22.26087 22.26087zM379.237732 1021.773913c-13.356522 0-22.26087-8.904348-22.260869-22.26087V385.113043c0-13.356522 8.904348-22.26087 22.260869-22.260869s22.26087 8.904348 22.26087 22.260869v614.4c0 11.130435-11.130435 22.26087-22.26087 22.26087zM646.368167 1021.773913c-13.356522 0-22.26087-8.904348-22.26087-22.26087V385.113043c0-13.356522 8.904348-22.26087 22.26087-22.260869s22.26087 8.904348 22.26087 22.260869v614.4c0 11.130435-11.130435 22.26087-22.26087 22.26087zM891.237732 1021.773913c-13.356522 0-22.26087-8.904348-22.260869-22.26087V385.113043c0-13.356522 8.904348-22.26087 22.260869-22.260869s22.26087 8.904348 22.26087 22.260869v614.4c0 11.130435-11.130435 22.26087-22.26087 22.26087z" p-id="1834" fill="#ffffff"></path><path d="M1002.54208 1024H23.063819c-13.356522 0-22.26087-8.904348-22.260869-22.26087s8.904348-22.26087 22.260869-22.260869h979.478261c13.356522 0 22.26087 8.904348 22.26087 22.260869s-11.130435 22.26087-22.26087 22.26087zM512.80295 311.652174c-48.973913 0-89.043478-40.069565-89.043479-89.043478s40.069565-89.043478 89.043479-89.043479 89.043478 40.069565 89.043478 89.043479-40.069565 89.043478-89.043478 89.043478z m0-133.565217c-24.486957 0-44.521739 20.034783-44.52174 44.521739s20.034783 44.521739 44.52174 44.521739 44.521739-20.034783 44.521739-44.521739-20.034783-44.521739-44.521739-44.521739z" p-id="1835" fill="#ffffff"></path></svg>