<?xml version="1.0" standalone="no"?><!DOCTYPE svg PUBLIC "-//W3C//DTD SVG 1.1//EN" "http://www.w3.org/Graphics/SVG/1.1/DTD/svg11.dtd"><svg t="1581329042223" class="icon" viewBox="0 0 1024 1024" version="1.1" xmlns="http://www.w3.org/2000/svg" p-id="1338" xmlns:xlink="http://www.w3.org/1999/xlink" width="128" height="128"><defs><style type="text/css"></style></defs><path d="M495.6 561.5c41.4 0 85.3 6.1 126.8 17.6 33.7 9.4 64.8 22.1 85.3 34.8l0.4 0.2 0.4 0.2c53.7 32.1 98.3 72.9 132.6 121.1 31.8 44.7 54 94.9 66.2 149.3H117c9.3-40.5 24.2-79.1 44.4-115 22.1-39.2 50-74.3 82.9-104.4 32.8-30 69.8-54.1 109.8-71.7 40.9-18 84.2-28.8 128.7-32h0.7l0.6-0.1h11.5m0-50c-5.3 0-11.2 0-16.5 0.5-204 14.9-374 170-414.4 378.3-2.1 10.6 0 23.4 8.5 31.9 6.4 8.5 17 12.8 27.6 12.8h822.4c10.6 0 21.2-4.3 27.6-12.8 6.4-8.5 10.6-19.1 8.5-31.9C933.8 754.3 853 642.7 734 571.5c-45-28.1-137.4-60-238.4-60z" p-id="1339" fill="#ffffff"></path><path d="M512 139.1c46.3 0 89.7 18 122.4 50.7s50.7 76.2 50.7 122.4c0 46.3-18 89.7-50.7 122.4s-76.2 50.7-122.4 50.7-89.7-18-122.4-50.7-50.7-76.2-50.7-122.4c0-46.3 18-89.7 50.7-122.4s76.1-50.7 122.4-50.7m0-50c-123.3 0-223.1 99.9-223.1 223.1 0 123.3 99.9 223.1 223.1 223.1s223.1-99.9 223.1-223.1C735.1 189 635.3 89.1 512 89.1z" p-id="1340" fill="#ffffff"></path></svg>