<?xml version="1.0" standalone="no"?><!DOCTYPE svg PUBLIC "-//W3C//DTD SVG 1.1//EN" "http://www.w3.org/Graphics/SVG/1.1/DTD/svg11.dtd"><svg t="1581329526047" class="icon" viewBox="0 0 1024 1024" version="1.1" xmlns="http://www.w3.org/2000/svg" p-id="2904" xmlns:xlink="http://www.w3.org/1999/xlink" width="128" height="128"><defs><style type="text/css"></style></defs><path d="M328.176 488.576h160.88V341.312H346.624a709.712 709.712 0 0 0-18.448 147.264z m19.296 183.584H489.04V521.088H328.176a709.44 709.44 0 0 0 19.296 151.072z m7.68-363.344H489.04V112.544a404.28 404.28 0 0 0-34.944 3.52c-42.816 51.312-77.008 117.28-98.944 192.752z m-41.12 32.496H149.968a397.76 397.76 0 0 0-37.456 147.264h183.072c1.12-51.408 7.52-100.848 18.448-147.264z m356.064 0H518.208v147.264h169.12a712.656 712.656 0 0 0-17.232-147.264z m186.656-32.496c-54.656-92.512-145.456-161.056-253.008-186.288 39.248 50.768 70.528 114.352 90.688 186.288h162.32z m-291.12-193.28A399.424 399.424 0 0 0 518.208 112v196.816h143.744c-21.104-75.312-54.448-141.44-96.32-193.28zM295.584 521.088H112c1.2 53.632 12.912 104.64 33.216 151.072H314.96a709.408 709.408 0 0 1-19.376-151.072z m-134.4 183.584C216.656 805.408 314.24 879.696 430.24 903.776c-46.144-51.792-83.072-120.208-106.528-199.104H161.184z m254.032-580.976c-105.36 26.16-194.176 94.048-248 185.12H322.56c20.832-71.744 52.768-134.96 92.656-185.12zM577.136 906.8c123.264-20.192 227.584-96.624 285.68-202.128H689.984c-24.912 80.992-64.08 150.624-112.848 202.128zM719.92 488.576h191.552a398.064 398.064 0 0 0-37.44-147.264H702.704a713.632 713.632 0 0 1 17.216 147.264zM518.208 704.672V912a408.47 408.47 0 0 0 22.24-0.96c50.688-51.888 91.328-123.136 116.928-206.368H518.208z m-49.92 205.056a402.106 402.106 0 0 0 20.768 1.728V704.672H356.32c24.368 81.984 63.248 152.624 111.968 205.056z m218.848-388.64H518.208V672.16H666.48a705.584 705.584 0 0 0 20.656-151.072z m104.592 0H719.68a706.608 706.608 0 0 1-20.624 151.072h179.728c20.304-46.432 32-97.44 33.216-151.072H791.728z" fill="#ffffff" p-id="2905"></path></svg>