<?xml version="1.0" standalone="no"?><!DOCTYPE svg PUBLIC "-//W3C//DTD SVG 1.1//EN" "http://www.w3.org/Graphics/SVG/1.1/DTD/svg11.dtd"><svg t="1581856963364" class="icon" viewBox="0 0 1024 1024" version="1.1" xmlns="http://www.w3.org/2000/svg" p-id="3003" xmlns:xlink="http://www.w3.org/1999/xlink" width="128" height="128"><defs><style type="text/css"></style></defs><path d="M836.8 224H187.2A59.2 59.2 0 0 0 128 283.2v473.6a59.2 59.2 0 0 0 59.2 59.2h649.6a59.2 59.2 0 0 0 59.2-59.2V283.2a59.2 59.2 0 0 0-59.2-59.2z m-649.6 32h649.6a27.2 27.2 0 0 1 27.2 27.2V320H160v-36.8a27.2 27.2 0 0 1 27.2-27.2z m649.6 528H187.2a27.2 27.2 0 0 1-27.2-27.2V352h704v404.8a27.2 27.2 0 0 1-27.2 27.2z" fill="#ffffff" p-id="3004"></path><path d="M720 272h32v32h-32zM768 272h32v32h-32zM816 272h32v32h-32zM352 384h-144a16 16 0 0 0-16 16v320a16 16 0 0 0 16 16h144a16 16 0 0 0 16-16V400a16 16 0 0 0-16-16z m-16 80v240h-112V416h112zM816 384H432a16 16 0 0 0-16 16v320a16 16 0 0 0 16 16h384a16 16 0 0 0 16-16V400a16 16 0 0 0-16-16z m-16 320H448V416h352z" fill="#ffffff" p-id="3005"></path><path d="M310.4 464h-56a16 16 0 0 0 0 32h57.6a16 16 0 0 0 0-32zM310.4 528h-56a16 16 0 0 0 0 32h57.6a16 16 0 0 0 0-32zM310.4 592h-56a16 16 0 0 0 0 32h57.6a16 16 0 0 0 0-32z" fill="#ffffff" p-id="3006"></path></svg>