<?xml version="1.0" standalone="no"?><!DOCTYPE svg PUBLIC "-//W3C//DTD SVG 1.1//EN" "http://www.w3.org/Graphics/SVG/1.1/DTD/svg11.dtd"><svg t="1581325118050" class="icon" viewBox="0 0 1024 1024" version="1.1" xmlns="http://www.w3.org/2000/svg" p-id="1600" width="200" height="200" xmlns:xlink="http://www.w3.org/1999/xlink"><defs><style type="text/css"></style></defs><path d="M507.9 328.9c7.5 0 15.5 1.1 23.7 3.4 43.5 11.8 78.1 39.3 99.4 60.2 26.6 26.1 45.2 54 53.8 71.3 15 30.6 20.9 59.6 17.8 88.8-3.2 30.2-15.7 61.6-38.3 96.2l-1.1 1.7c-31.1 47-72.8 81.8-109.6 109.7-61.4 46.6-98.2 71.8-167.2 107.1l-0.1 0.1-0.1 0.1c-1.3 0.7-2.8 1.5-6.2 3.4-13.6 7.7-45.4 25.7-83.5 34.3-14 3.2-27.4 4.8-39.9 4.8-15 0-29.3-2.3-42.3-6.9-10.9-3.8-21.3-9.3-31-16.4-10.9-8-18.4-24.3-20.5-44.9-3-29.5 6.4-57.1 17.2-68.9 35-38.4 61.5-50.4 87.1-62 13.5-6.1 26.2-11.8 39.6-20.7 31.3-20.8 69.4-65 84-116.9 5.8-20.8 6.8-45.1 7.7-70.8v-0.1c0.9-24.1 1.8-49.1 6.9-72.5 5-23.3 13.5-41.4 26-55.3 12.6-14.1 27.8-29.6 44.8-38.1 10.3-5.1 20.6-7.6 31.8-7.6m0-50c-19 0-37.1 4.3-54.1 12.9-24.4 12.3-43.8 31.9-59.5 49.4-41.4 46.2-43.7 108.9-45.6 159.3-0.9 22.7-1.7 44.1-5.9 59.2-10.6 37.6-40 73.2-63.5 88.8-10 6.6-20.4 11.4-32.5 16.8-27.4 12.4-61.6 27.8-103.5 73.9-22.4 24.6-34.1 66.8-30 107.7 3.6 35.2 18 63.6 40.8 80.2 13.7 10 28.4 17.8 43.9 23.2 18.4 6.5 38.1 9.7 58.8 9.7 16.3 0 33.3-2 50.9-6 45.3-10.2 81.6-30.8 97.1-39.5 1.9-1.1 3.8-2.1 4.6-2.5 72-36.9 112-64.3 174.6-111.8 40.1-30.4 85.8-68.7 121-121.9 55.2-83.4 63.1-158.6 24.8-236.4-21.1-42.9-87-131.1-185-157.7-12.6-3.6-24.9-5.3-36.9-5.3zM473.4 114c1 0 2.1 0.1 3.1 0.3 5.3 1 9.6 4.5 13 10.4 5.6 9.8 6.7 20.4 3.5 32.5-3.7 11.6-8.5 16.8-12.3 20l-0.1 0.1c-2.8 2.3-7.1 5-12.4 5-0.7 0-1.4 0-2.1-0.1-1.2-0.1-2.3-0.4-3.3-0.8-3.6-1.3-6.9-3.9-9.5-7.7-5.3-7.5-7.5-18.3-5.9-29 1.6-10.7 6.8-20.4 14-26 3.9-3.1 8-4.7 12-4.7m0-50c-15 0-29.9 5.2-42.7 15.1-17.4 13.5-29.4 34.7-32.9 58.2s1.9 47.3 14.6 65.3c8.7 12.3 20.4 21.2 33.8 25.9 4.4 1.5 9 2.6 13.6 3.2 2.8 0.4 5.6 0.5 8.3 0.5 16.1 0 31.7-5.9 44.8-16.9 13-11 22.2-25.3 27.9-43.7l0.2-0.7c6.9-25.1 4-49.6-8.2-71-10.5-18.4-27.1-30.7-46.6-34.6-4.2-0.9-8.5-1.3-12.8-1.3zM632.7 163.4c1.9 0 3.8 0.3 5.6 0.9 7.5 2.3 11.6 8.3 13.6 13 4.4 9.9 4.5 20.6 0.3 31.8-3.6 8.3-8 14.1-14 18.2l-0.1 0.1c-4.1 2.8-8.5 4.2-12.8 4.2-1.5 0-2.9-0.2-4.4-0.5-1.4-0.3-2.7-0.8-3.9-1.3-4-1.9-7.4-5.2-9.9-9.6-4.5-7.9-5.7-18.8-3.1-28.9 2.6-10.1 8.7-19.1 16.4-23.9 4.1-2.7 8.3-4 12.3-4m0-35c-10.6 0-21.2 3.1-30.9 9.2-15.4 9.6-27 26.1-31.8 45-4.8 19-2.4 38.9 6.6 54.8 6.2 10.8 15 19.1 25.5 24 3.5 1.6 7.2 2.9 10.9 3.8 4.1 0.9 8.2 1.4 12.2 1.4 11.4 0 22.7-3.6 32.7-10.5 11.6-8 20.3-18.9 26.5-33.6l0.2-0.6c7.7-20 7.4-40.4-0.9-58.9-7.1-16-19.7-27.4-35.4-32.2-4.9-1.6-10.2-2.4-15.6-2.4zM755.1 256.2c4.8 0 8.8 1.5 11.9 4.3 4.6 4.2 5.5 9.9 5.5 14 0 3.8-0.7 9.9-6.6 18.7l-0.1 0.2c-6.2 8.4-13.8 12.8-23.1 13.5-0.6 0-1.2 0.1-1.7 0.1-2.2 0-4.2-0.3-6.1-1-6.2-2.2-10.2-7.7-10.9-15-1.4-15.7 13.1-33.2 28.9-34.7 0.7-0.1 1.5-0.1 2.2-0.1m0-30c-1.6 0-3.3 0.1-4.9 0.2-32.2 2.9-58.9 35-56 67.2 1.8 19.6 14 34.7 30.8 40.6 5 1.8 10.4 2.7 16 2.7 1.3 0 2.7-0.1 4.1-0.2 18.1-1.4 33.7-10.4 45.1-26l0.5-0.7c7.9-11.7 11.8-23.4 11.8-35.5 0.1-14.3-5.3-27.1-15.2-36.2-8.7-7.8-20-12.1-32.2-12.1zM831.2 367.7h1.2c3.6 0.2 8.5 1.3 12 5.6s3.6 9.5 3 13.1c-0.5 3.4-2 8.8-8.4 15.9l-0.1 0.1c-6.2 6.2-12.9 9.2-20.6 9.2-0.7 0-1.4 0-2.1-0.1-1.7-0.1-3.3-0.4-4.8-1-6.5-2.3-10.1-8.1-9.7-15.6 0.4-6.8 4.2-14.1 10.2-19.5 5.7-4.8 12.8-7.7 19.3-7.7m0-30c-13.9 0-28.1 5.6-39.3 15.6-12 10.7-19.3 25.3-20.1 40.1-1.2 21.2 11 39.1 29.7 45.6 4 1.4 8.2 2.3 12.7 2.6 1.4 0.1 2.7 0.1 4.1 0.1 15.8 0 30.3-6.3 42.1-18.3l0.6-0.6c9.1-9.9 14.3-20.4 16.1-31.8 2.1-13.5-1.2-26.5-9.4-36.6-8.1-10-20-15.9-33.6-16.7h-2.9zM876.7 486.8c0.3 0.1 0.5 0.2 0.8 0.4 3.4 1.7 5.5 4.1 6.3 7.1 1 3.8-0.5 7.3-1.9 9.5s-4.1 5.6-11 8.6h-0.1c-6.4 2.5-12.1 2.5-17.5 0.1-0.5-0.2-1-0.4-1.4-0.7-1.1-0.6-2.1-1.3-2.9-2-3.5-3.3-4.1-8.2-1.7-12.9 2.4-4.7 7.4-8.6 13.4-10.5 5.4-1.8 11.3-1.7 16 0.4m11.2-25.2c-10.8-4.8-23.7-5.3-35.8-1.4-12.9 4.2-23.7 13-29.4 24.2-8.2 16.1-4.9 34.1 7.3 45.6 2.6 2.4 5.6 4.6 8.9 6.4 1 0.5 2.1 1 3.1 1.5 12.2 5.4 25.6 5.5 39 0.3l0.7-0.3c10.5-4.6 18.1-10.8 23.4-19.1 6.3-9.8 8.2-21 5.3-31.6-2.8-10.5-10-19.2-20.3-24.5-0.8-0.5-1.5-0.8-2.2-1.1z" fill="#ffffff" p-id="1601"></path></svg>